<svg width="140" height="42" viewBox="0 0 140 42" fill="none" xmlns="http://www.w3.org/2000/svg">
<path fill-rule="evenodd" clip-rule="evenodd" d="M13.3199 35.2044H13.2289C10.3356 35.2044 7.615 34.0966 5.56855 32.0851C3.52241 30.0729 2.39551 27.3985 2.39551 24.5539V17.446C2.39551 14.6015 3.52241 11.9269 5.56838 9.91499C7.615 7.90341 10.3356 6.79553 13.2288 6.79553H13.3197C16.2131 6.79553 18.9335 7.90341 20.9801 9.91484C23.0263 11.9269 24.1532 14.6015 24.1532 17.4459V24.5538C24.1532 27.3983 23.0263 30.0729 20.9803 32.0848C18.9338 34.0966 16.2133 35.2044 13.3199 35.2044ZM13.2289 7.59373C10.5523 7.59373 8.03571 8.61857 6.14246 10.4794C4.24969 12.3407 3.20725 14.8148 3.20725 17.446V24.5539C3.20725 27.1852 4.24969 29.6595 6.14246 31.5208C8.03571 33.3816 10.5523 34.4064 13.2288 34.4064H13.3197C15.9962 34.4064 18.513 33.3816 20.4062 31.5208C22.299 29.6596 23.3414 27.1854 23.3414 24.5541V17.4462C23.3414 14.8149 22.299 12.3407 20.4062 10.4794C18.5131 8.61857 15.9964 7.59373 13.3199 7.59373H13.2289ZM13.3195 33.6083H13.2287C9.84284 33.6083 6.73741 31.7881 5.12414 28.8581C4.90074 28.4523 4.70781 28.0266 4.55056 27.5928C4.47533 27.3851 4.58557 27.1569 4.79666 27.0829C5.00774 27.009 5.24006 27.1173 5.31528 27.3249C5.4586 27.7203 5.6345 28.1082 5.83812 28.478C7.30937 31.1501 10.1413 32.8099 13.2287 32.8099H13.3195C14.5473 32.8099 15.7303 32.5555 16.8358 32.0536C17.0392 31.9613 17.2805 32.0485 17.3745 32.2487C17.4685 32.4487 17.3797 32.6859 17.1761 32.7783C15.9631 33.3292 14.6655 33.6083 13.3195 33.6083ZM4.01883 24.5538C4.01883 24.7743 4.20056 24.9529 4.42478 24.9529C4.64883 24.9529 4.83057 24.7743 4.83073 24.5537V17.4458C4.83073 12.8933 8.59811 9.18953 13.2288 9.18953H13.3196C15.1057 9.18953 16.8108 9.73335 18.2508 10.762C18.4321 10.8914 18.6859 10.8521 18.8177 10.6737C18.9496 10.4955 18.9093 10.2459 18.7279 10.1164C17.1484 8.98791 15.2782 8.3915 13.3196 8.3915H13.2288C10.7687 8.3915 8.45593 9.3333 6.71636 11.0435C4.9768 12.7537 4.01883 15.0275 4.01883 17.4459V24.5538ZM20.1979 30.3555C20.1089 30.3555 20.0194 30.327 19.9447 30.268C19.7696 30.1303 19.7412 29.8793 19.8813 29.7071C21.0826 28.2308 21.7176 26.4487 21.7176 24.5539V17.4461C21.7176 15.566 21.0578 13.7262 19.8594 12.2661C19.7187 12.0946 19.7461 11.8434 19.9205 11.7049C20.095 11.5665 20.3505 11.5935 20.4914 11.765C21.8057 13.3666 22.5296 15.3843 22.5296 17.4461V24.5539C22.5296 25.5995 22.3498 26.6245 21.995 27.6006C21.6523 28.5438 21.1544 29.4202 20.5154 30.2057C20.4349 30.3042 20.3169 30.3555 20.1979 30.3555ZM5.65119 18.1892C5.65119 18.4096 5.83293 18.5882 6.05714 18.5882C6.28135 18.5882 6.46309 18.4096 6.46293 18.1892V17.1908C6.46293 15.4916 7.15729 13.8864 8.41827 12.6711C8.57829 12.5168 8.58088 12.2642 8.42395 12.1069C8.26701 11.9494 8.01005 11.947 7.85004 12.1013C6.43212 13.468 5.65119 15.2755 5.65119 17.1908V18.1892ZM7.08904 28.7348C6.95367 28.7348 6.82138 28.6682 6.74437 28.5471C6.02925 27.421 5.65119 26.1284 5.65119 24.8092V23.2479C5.65119 23.0274 5.83293 22.8488 6.05714 22.8488C6.28135 22.8488 6.46309 23.0274 6.46309 23.2479V24.8092C6.46309 25.9789 6.79852 27.1252 7.43306 28.1244C7.55174 28.3113 7.49386 28.5574 7.30369 28.6742C7.2369 28.7154 7.16248 28.7348 7.08904 28.7348ZM9.47045 31.0904C10.6231 31.7241 11.9386 32.0592 13.2746 32.0592C17.4781 32.0592 20.8979 28.8069 20.8981 24.8093V23.8987C20.8981 23.6783 20.7163 23.4996 20.4921 23.4996C20.2679 23.4996 20.0862 23.6783 20.0862 23.8987V24.8093C20.0862 28.3669 17.0305 31.2611 13.2746 31.2611C12.077 31.2611 10.8986 30.9612 9.86668 30.3939C9.671 30.2863 9.42376 30.355 9.31433 30.5474C9.2049 30.7398 9.27477 30.9828 9.47045 31.0904ZM20.5572 22.4328C20.333 22.4328 20.1513 22.2541 20.1513 22.0336V20.5821C20.1513 20.3617 20.333 20.183 20.5572 20.183C20.7815 20.183 20.9632 20.3617 20.9632 20.5821V22.0336C20.9632 22.2541 20.7815 22.4328 20.5572 22.4328ZM20.0853 18.9223C20.0853 19.1427 20.2671 19.3214 20.4913 19.3214C20.7155 19.3214 20.8972 19.1427 20.8971 18.9223V17.1907C20.8971 13.1931 17.4773 9.94085 13.2738 9.94085C12.2106 9.94085 11.1811 10.146 10.2138 10.5507C9.90411 10.6802 9.60013 10.8312 9.31075 10.9993C9.11766 11.1114 9.05378 11.356 9.16775 11.5458C9.28172 11.7357 9.53058 11.7985 9.72367 11.6864C9.98258 11.536 10.2545 11.401 10.5317 11.2849C11.3979 10.9227 12.3205 10.7389 13.2738 10.7389C17.0297 10.7389 20.0853 13.6331 20.0853 17.1907V18.9223ZM18.8594 18.0383C18.6352 18.0383 18.4534 17.8596 18.4534 17.6392V17.1906C18.4534 15.0064 16.9021 13.066 14.681 12.4718C14.4648 12.4139 14.3372 12.1946 14.396 11.982C14.4549 11.7694 14.6779 11.6439 14.8942 11.7018C17.4679 12.3905 19.2653 14.6475 19.2653 17.1908V17.6393C19.2652 17.8596 19.0836 18.0383 18.8594 18.0383ZM7.73697 16.3818C7.76875 16.3893 7.80068 16.3929 7.83197 16.3929C8.01533 16.3929 8.18167 16.2699 8.22641 16.0868C8.62005 14.4732 9.83725 13.1659 11.4821 12.59C11.6934 12.5163 11.8036 12.288 11.7284 12.0803C11.6532 11.8727 11.4209 11.7643 11.2098 11.8382C10.2865 12.1615 9.45124 12.7043 8.79416 13.4082C8.13076 14.1187 7.66142 14.9806 7.43688 15.9006C7.38468 16.115 7.51892 16.3303 7.73697 16.3818ZM13.2743 30.5101C11.8961 30.5101 10.5495 30.052 9.48272 29.2205C8.42764 28.3981 7.69242 27.2508 7.41227 25.9901C7.36445 25.7748 7.50322 25.5622 7.72225 25.5151C7.94111 25.4681 8.15755 25.6046 8.20537 25.8197C8.70649 28.075 10.8384 29.712 13.2744 29.712C15.078 29.712 16.7793 28.8001 17.7141 27.3321C17.8331 27.1453 18.0836 27.0887 18.2736 27.2056C18.4636 27.3226 18.5211 27.5688 18.4023 27.7556C17.8769 28.5806 17.1352 29.2712 16.257 29.7525C15.3525 30.2481 14.3212 30.5101 13.2743 30.5101ZM8.91436 17.1908C8.91436 17.4112 9.0961 17.5899 9.32031 17.5899C9.54436 17.5899 9.7261 17.4112 9.72626 17.1908C9.72626 16.1146 10.0737 15.1844 10.6795 14.6389C11.2885 14.0904 12.2774 13.7497 13.2602 13.7497C14.2084 13.7497 15.2257 14.11 15.8519 14.6677C16.0179 14.8158 16.2745 14.8033 16.4251 14.64C16.5757 14.4768 16.5631 14.2245 16.3969 14.0764C15.6181 13.3826 14.4161 12.9516 13.2602 12.9516C12.0649 12.9516 10.895 13.3624 10.1311 14.0504C9.35776 14.7468 8.91436 15.8915 8.91436 17.1908ZM10.042 27.5022C9.91851 27.5022 9.79643 27.4469 9.71683 27.3421C9.17518 26.6305 8.88888 25.7896 8.88888 24.9099C8.88888 24.6895 9.07062 24.5108 9.29483 24.5108C9.51904 24.5108 9.70078 24.6895 9.70078 24.9099C9.70078 25.6157 9.93116 26.2915 10.3669 26.8638C10.5013 27.0403 10.4647 27.2903 10.2852 27.4225C10.2121 27.4762 10.1267 27.5022 10.042 27.5022ZM12.256 28.8466C12.5879 28.9226 12.9305 28.961 13.2742 28.961C14.7885 28.961 16.0352 28.4671 16.7847 27.5702C17.3243 26.9243 17.6338 25.9179 17.6338 24.8091C17.6338 24.5886 17.452 24.41 17.2278 24.41C17.0036 24.41 16.8219 24.5886 16.8219 24.8091C16.8219 25.7228 16.5735 26.5656 16.1573 27.0637C15.5738 27.7623 14.523 28.1628 13.2743 28.1628C12.9924 28.1628 12.7118 28.1314 12.44 28.0693C12.2217 28.0192 12.0035 28.1528 11.9527 28.3675C11.9018 28.5822 12.0377 28.7967 12.256 28.8466ZM18.0484 18.3268H15.993V16.3061C15.993 15.5091 15.3358 14.8629 14.525 14.8629H12.0228C11.2121 14.8629 10.5548 15.5091 10.5548 16.3061V18.3268H8.49944C7.68867 18.3268 7.03143 18.973 7.03143 19.77V22.23C7.03143 23.027 7.68867 23.6732 8.49944 23.6732H10.5548V25.6939C10.5548 26.4909 11.2121 27.1371 12.0228 27.1371H14.525C15.3358 27.1371 15.993 26.4909 15.993 25.6939V23.6732H18.0484C18.8591 23.6732 19.5164 23.027 19.5164 22.23V19.77C19.5164 18.973 18.8591 18.3268 18.0484 18.3268ZM117.306 28.6614C118.937 30.2376 121.267 31.0367 124.232 31.0367C127.197 31.0367 129.527 30.2376 131.158 28.6614C132.788 27.0867 133.615 24.8117 133.615 21.8991V11.7753C133.615 11.3315 133.248 10.9703 132.796 10.9703H129.274C128.822 10.9703 128.455 11.3315 128.455 11.7753V21.7257C128.455 25.1322 127.054 26.8593 124.291 26.8593C121.509 26.8593 120.098 25.132 120.098 21.7257V11.7753C120.098 11.3315 119.73 10.9703 119.279 10.9703H115.669C115.217 10.9703 114.85 11.3315 114.85 11.7753V21.8991C114.85 24.8118 115.676 27.087 117.306 28.6614ZM114.509 31.4587C116.913 33.7816 120.184 34.9593 124.232 34.9593C128.28 34.9593 131.551 33.7818 133.955 31.4595C136.377 29.1199 137.605 25.9036 137.605 21.8994V16.5492C137.605 16.1158 137.248 15.7647 136.807 15.7647C136.366 15.7647 136.009 16.116 136.009 16.5492V21.8994C136.009 25.4669 134.942 28.3068 132.836 30.3403C130.741 32.3642 127.847 33.3905 124.232 33.3905C120.617 33.3905 117.723 32.364 115.628 30.34C115.314 30.0362 114.809 30.0405 114.5 30.3494C114.191 30.6585 114.195 31.1549 114.509 31.4587ZM48.3516 29.827C48.3516 30.2711 48.7189 30.6323 49.1706 30.6323H52.781C53.2327 30.6323 53.6001 30.2711 53.6001 29.827V11.7754C53.6001 11.3315 53.2327 10.9703 52.781 10.9703H49.1706C48.7189 10.9703 48.3516 11.3315 48.3516 11.7754V18.568H39.8476V11.7754C39.8476 11.3315 39.4803 10.9703 39.0288 10.9703H35.4183C34.9667 10.9703 34.5993 11.3315 34.5993 11.7754V29.827C34.5993 30.2711 34.9667 30.6323 35.4183 30.6323H39.0288C39.4803 30.6323 39.8476 30.2711 39.8476 29.827V22.7456H48.3516V29.827ZM73.3812 30.1291C73.507 30.4349 73.805 30.6324 74.1404 30.6324H77.7536C78.0359 30.6324 78.286 30.499 78.44 30.2664C78.5941 30.0339 78.6168 29.755 78.5025 29.5012L70.3708 11.4496C70.2396 11.1585 69.9457 10.9705 69.6219 10.9705H65.3298C65.0055 10.9705 64.7115 11.1589 64.5805 11.4505L56.475 29.5022C56.3611 29.7558 56.3841 30.0347 56.5381 30.2669C56.692 30.4991 56.9421 30.6324 57.2242 30.6324H60.7215C61.0569 30.6324 61.3549 30.4348 61.4807 30.1291L62.8899 26.7034H71.9722L73.3812 30.1291ZM70.4972 23.046H64.3647L67.4309 15.5434L70.4972 23.046ZM82.1992 30.6324C81.7477 30.6324 81.3803 30.2712 81.3803 29.8272V11.7755C81.3803 11.3316 81.7477 10.9705 82.1992 10.9705H85.8098C86.2613 10.9705 86.6287 11.3316 86.6287 11.7755V29.8272C86.6287 30.2712 86.2613 30.6324 85.8098 30.6324H82.1992ZM105.726 30.3409C105.882 30.5261 106.112 30.6324 106.357 30.6324H109.523C109.975 30.6324 110.342 30.2712 110.342 29.8272V11.7755C110.342 11.3316 109.975 10.9705 109.523 10.9705H106.031C105.579 10.9705 105.212 11.3316 105.212 11.7755V22.2434L95.9585 11.262C95.8024 11.0768 95.5725 10.9705 95.3278 10.9705H92.1609C91.7094 10.9705 91.3421 11.3316 91.3421 11.7755V29.8272C91.3421 30.2712 91.7094 30.6324 92.1609 30.6324H95.6537C96.1054 30.6324 96.4727 30.2712 96.4727 29.8272V19.3595L105.726 30.3409Z" fill="#425A8B"/>
</svg>
