<svg width="72" height="18" viewBox="0 0 72 18" fill="none" xmlns="http://www.w3.org/2000/svg">
<path fill-rule="evenodd" clip-rule="evenodd" d="M5.7835 16.52H5.73535C4.20356 16.52 2.76326 15.9335 1.67984 14.8686C0.596597 13.8033 0 12.3874 0 10.8815V7.11849C0 5.61256 0.596597 4.19659 1.67976 3.13146C2.76326 2.0665 4.20356 1.47998 5.73526 1.47998H5.78341C7.3152 1.47998 8.75541 2.06651 9.83891 3.13138C10.9222 4.19659 11.5188 5.61256 11.5188 7.1184V10.8814C11.5188 12.3873 10.9222 13.8033 9.839 14.8684C8.75558 15.9335 7.31529 16.52 5.7835 16.52ZM5.73535 1.90255C4.31831 1.90255 2.98599 2.44512 1.98368 3.43025C0.981625 4.41564 0.429746 5.72546 0.429746 7.11849V10.8815C0.429746 12.2745 0.981625 13.5844 1.98368 14.5698C2.98599 15.5549 4.31831 16.0975 5.73526 16.0975H5.78341C7.20036 16.0975 8.53277 15.5549 9.53508 14.5698C10.5371 13.5845 11.089 12.2746 11.089 10.8816V7.11857C11.089 5.72555 10.5371 4.41564 9.53508 3.43025C8.53285 2.44512 7.20045 1.90255 5.7835 1.90255H5.73535ZM5.78343 15.6749H5.73537C3.94283 15.6749 2.29878 14.7113 1.44469 13.1602C1.32642 12.9453 1.22429 12.72 1.14103 12.4903C1.10121 12.3803 1.15957 12.2595 1.27132 12.2203C1.38307 12.1812 1.50606 12.2386 1.54589 12.3484C1.62176 12.5578 1.71488 12.7632 1.82269 12.9589C2.60158 14.3735 4.10084 15.2523 5.73537 15.2523H5.78343C6.43342 15.2523 7.05971 15.1176 7.64498 14.8519C7.75269 14.803 7.88041 14.8492 7.93019 14.9552C7.97997 15.0611 7.93293 15.1866 7.82513 15.2356C7.18296 15.5272 6.49599 15.6749 5.78343 15.6749ZM0.85957 10.8814C0.85957 10.9981 0.955784 11.0927 1.07449 11.0927C1.1931 11.0927 1.28932 10.9981 1.2894 10.8813V7.11832C1.2894 4.70818 3.28389 2.74737 5.73543 2.74737H5.78349C6.72907 2.74737 7.63181 3.03527 8.39415 3.57986C8.4901 3.64837 8.62451 3.62753 8.69429 3.53311C8.76407 3.43877 8.74278 3.30664 8.64674 3.23803C7.81051 2.64063 6.82039 2.32488 5.78349 2.32488H5.73543C4.43306 2.32488 3.20862 2.82348 2.28768 3.72887C1.36673 4.63427 0.85957 5.83803 0.85957 7.11841V10.8814ZM9.42488 13.9529C9.37776 13.9529 9.33038 13.9378 9.29081 13.9066C9.19812 13.8337 9.1831 13.7008 9.25725 13.6096C9.89325 12.828 10.2294 11.8846 10.2294 10.8815V7.11849C10.2294 6.12314 9.88011 5.14915 9.24567 4.37614C9.17117 4.28535 9.18567 4.15237 9.27802 4.07904C9.37038 4.0058 9.50564 4.02006 9.58023 4.11086C10.276 4.95879 10.6593 6.02695 10.6593 7.11849V10.8815C10.6593 11.435 10.5641 11.9777 10.3763 12.4944C10.1948 12.9938 9.93127 13.4578 9.59293 13.8736C9.55036 13.9257 9.48788 13.9529 9.42488 13.9529ZM1.72383 7.51184C1.72383 7.62853 1.82004 7.72312 1.93874 7.72312C2.05745 7.72312 2.15366 7.62853 2.15357 7.51184V6.98328C2.15357 6.08371 2.52118 5.23392 3.18876 4.59053C3.27347 4.50885 3.27484 4.3751 3.19176 4.29182C3.10868 4.20845 2.97264 4.20719 2.88793 4.28887C2.13727 5.01242 1.72383 5.96929 1.72383 6.98328V7.51184ZM2.48504 13.0948C2.41338 13.0948 2.34334 13.0596 2.30257 12.9954C1.92398 12.3993 1.72383 11.715 1.72383 11.0166V10.19C1.72383 10.0733 1.82004 9.97869 1.93874 9.97869C2.05745 9.97869 2.15366 10.0733 2.15366 10.19V11.0166C2.15366 11.6358 2.33124 12.2427 2.66717 12.7717C2.73 12.8706 2.69936 13.0009 2.59868 13.0628C2.56332 13.0845 2.52393 13.0948 2.48504 13.0948ZM3.74578 14.3419C4.35602 14.6774 5.05244 14.8547 5.75976 14.8547C7.98513 14.8547 9.7956 13.133 9.79569 11.0166V10.5345C9.79569 10.4178 9.69947 10.3232 9.58077 10.3232C9.46207 10.3232 9.36586 10.4178 9.36586 10.5345V11.0166C9.36586 12.9 7.74815 14.4323 5.75976 14.4323C5.12574 14.4323 4.50185 14.2735 3.95554 13.9732C3.85195 13.9162 3.72106 13.9526 3.66313 14.0544C3.60519 14.1563 3.64218 14.2849 3.74578 14.3419ZM9.61511 9.75848C9.49641 9.75848 9.4002 9.66388 9.4002 9.54719V8.77874C9.4002 8.66204 9.49641 8.56746 9.61511 8.56746C9.73381 8.56746 9.83003 8.66204 9.83003 8.77874V9.54719C9.83003 9.66388 9.73381 9.75848 9.61511 9.75848ZM9.36527 7.9C9.36527 8.01669 9.46148 8.11129 9.58018 8.11129C9.69889 8.11129 9.7951 8.01669 9.79501 7.9V6.98329C9.79501 4.86688 7.98454 3.14512 5.75917 3.14512C5.1963 3.14512 4.65129 3.25371 4.13914 3.46795C3.97521 3.53655 3.81428 3.61646 3.66108 3.70548C3.55886 3.7648 3.52504 3.89433 3.58538 3.99482C3.64571 4.09532 3.77746 4.12856 3.87968 4.06924C4.01675 3.98959 4.16069 3.91812 4.30746 3.85669C4.76604 3.66489 5.25449 3.56761 5.75917 3.56761C7.74756 3.56761 9.36527 5.09986 9.36527 6.98329V7.9ZM8.71625 7.43194C8.59755 7.43194 8.50134 7.33735 8.50134 7.22065V6.98321C8.50134 5.82687 7.68004 4.79955 6.50418 4.48498C6.38969 4.45435 6.32214 4.33824 6.3533 4.22568C6.38445 4.11312 6.50255 4.04671 6.61705 4.07734C7.97958 4.44194 8.93117 5.63685 8.93117 6.98329V7.22074C8.93108 7.33735 8.83495 7.43194 8.71625 7.43194ZM2.82792 6.55505C2.84474 6.55901 2.86165 6.56095 2.87821 6.56095C2.97529 6.56095 3.06335 6.49581 3.08703 6.39886C3.29543 5.5446 3.93983 4.85252 4.81065 4.54765C4.92249 4.50858 4.98085 4.38775 4.94103 4.27781C4.9012 4.16786 4.77821 4.11048 4.66646 4.14963C4.17766 4.32076 3.73547 4.60815 3.38761 4.98077C3.0364 5.35694 2.78792 5.81327 2.66905 6.30031C2.64141 6.4138 2.71248 6.52779 2.82792 6.55505ZM5.75976 14.0347C5.03013 14.0347 4.31723 13.7922 3.75248 13.3519C3.19391 12.9165 2.80467 12.3092 2.65636 11.6417C2.63104 11.5277 2.70451 11.4152 2.82046 11.3903C2.93633 11.3654 3.05092 11.4376 3.07623 11.5515C3.34153 12.7455 4.47018 13.6122 5.75985 13.6122C6.71469 13.6122 7.61538 13.1294 8.11027 12.3522C8.17327 12.2533 8.30588 12.2234 8.40647 12.2852C8.50706 12.3472 8.53753 12.4775 8.47462 12.5764C8.19645 13.0132 7.80378 13.3788 7.33884 13.6336C6.86 13.8959 6.31405 14.0347 5.75976 14.0347ZM3.45117 6.98326C3.45117 7.09996 3.54739 7.19455 3.66609 7.19455C3.7847 7.19455 3.88092 7.09996 3.881 6.98326C3.881 6.41353 4.06493 5.92109 4.38568 5.63226C4.70805 5.34191 5.23161 5.1615 5.7519 5.1615C6.25392 5.1615 6.79249 5.35229 7.12396 5.64753C7.21185 5.72592 7.34772 5.71934 7.42745 5.63285C7.50719 5.54644 7.50049 5.41287 7.41252 5.33448C7.0002 4.96718 6.36386 4.73901 5.7519 4.73901C5.11909 4.73901 4.49974 4.95646 4.09532 5.32073C3.68591 5.68938 3.45117 6.2954 3.45117 6.98326ZM4.0482 12.4423C3.9828 12.4423 3.91817 12.413 3.87602 12.3575C3.58927 11.9808 3.4377 11.5356 3.4377 11.0699C3.4377 10.9532 3.53391 10.8586 3.65261 10.8586C3.77131 10.8586 3.86753 10.9532 3.86753 11.0699C3.86753 11.4435 3.98949 11.8013 4.2202 12.1043C4.29135 12.1977 4.27195 12.3301 4.17694 12.4001C4.13823 12.4285 4.093 12.4423 4.0482 12.4423ZM5.22054 13.154C5.39623 13.1943 5.57759 13.2146 5.75955 13.2146C6.56127 13.2146 7.2213 12.9531 7.61808 12.4783C7.90372 12.1363 8.06757 11.6035 8.06757 11.0165C8.06757 10.8998 7.97136 10.8052 7.85266 10.8052C7.73395 10.8052 7.63774 10.8998 7.63774 11.0165C7.63774 11.5003 7.50625 11.9465 7.28593 12.2101C6.97703 12.58 6.42069 12.792 5.75963 12.792C5.61037 12.792 5.46181 12.7754 5.31796 12.7425C5.20234 12.716 5.08682 12.7867 5.05995 12.9004C5.033 13.014 5.10493 13.1276 5.22054 13.154ZM8.28699 7.58476H7.19886V6.51499C7.19886 6.093 6.85091 5.75093 6.42168 5.75093H5.09699C4.66776 5.75093 4.31981 6.093 4.31981 6.51499V7.58476H3.23167C2.80244 7.58476 2.45449 7.92683 2.45449 8.34881V9.65113C2.45449 10.0731 2.80244 10.4152 3.23167 10.4152H4.31981V11.485C4.31981 11.9069 4.66776 12.249 5.09699 12.249H6.42168C6.85091 12.249 7.19886 11.9069 7.19886 11.485V10.4152H8.28699C8.71622 10.4152 9.06418 10.0731 9.06418 9.65113V8.34881C9.06418 7.92683 8.71622 7.58476 8.28699 7.58476ZM60.835 13.056C61.6984 13.8904 62.9321 14.3135 64.5017 14.3135C66.0711 14.3135 67.3048 13.8904 68.1685 13.056C69.0314 12.2223 69.469 11.0179 69.469 9.47595V4.11631C69.469 3.88132 69.2745 3.69011 69.0355 3.69011H67.1707C66.9317 3.69011 66.7372 3.88132 66.7372 4.11631V9.38414C66.7372 11.1876 65.9955 12.1019 64.5328 12.1019C63.0598 12.1019 62.3128 11.1875 62.3128 9.38414V4.11631C62.3128 3.88132 62.1183 3.69011 61.8793 3.69011H59.968C59.7289 3.69011 59.5344 3.88132 59.5344 4.11631V9.47595C59.5344 11.018 59.972 12.2225 60.835 13.056ZM59.3542 14.5369C60.6267 15.7667 62.3586 16.3902 64.5016 16.3902C66.6445 16.3902 68.3763 15.7668 69.6489 14.5374C70.9312 13.2987 71.5813 11.596 71.5813 9.4761V6.64364C71.5813 6.41421 71.3923 6.22832 71.1589 6.22832C70.9255 6.22832 70.7364 6.41429 70.7364 6.64364V9.4761C70.7364 11.3648 70.1712 12.8682 69.0567 13.9448C67.9477 15.0163 66.4151 15.5596 64.5016 15.5596C62.5879 15.5596 61.0554 15.0162 59.9465 13.9447C59.7802 13.7839 59.5128 13.7861 59.3492 13.9497C59.1855 14.1133 59.1879 14.3761 59.3542 14.5369ZM24.3296 13.6731C24.3296 13.9082 24.5241 14.0994 24.7632 14.0994H26.6746C26.9138 14.0994 27.1083 13.9082 27.1083 13.6731V4.11633C27.1083 3.88133 26.9138 3.69012 26.6746 3.69012H24.7632C24.5241 3.69012 24.3296 3.88133 24.3296 4.11633V7.71243H19.8276V4.11633C19.8276 3.88133 19.6331 3.69012 19.394 3.69012H17.4826C17.2435 3.69012 17.049 3.88133 17.049 4.11633V13.6731C17.049 13.9082 17.2435 14.0994 17.4826 14.0994H19.394C19.6331 14.0994 19.8276 13.9082 19.8276 13.6731V9.9241H24.3296V13.6731ZM37.581 13.833C37.6476 13.995 37.8053 14.0995 37.9829 14.0995H39.8958C40.0452 14.0995 40.1776 14.0289 40.2592 13.9058C40.3407 13.7827 40.3527 13.635 40.2922 13.5007L35.9872 3.94391C35.9178 3.78983 35.7622 3.69026 35.5908 3.69026H33.3185C33.1468 3.69026 32.9911 3.79 32.9218 3.94441L28.6307 13.5012C28.5703 13.6354 28.5825 13.7831 28.664 13.906C28.7455 14.029 28.8779 14.0995 29.0273 14.0995H30.8788C31.0564 14.0995 31.2141 13.9949 31.2807 13.833L32.0267 12.0195H36.835L37.581 13.833ZM36.0542 10.0832H32.8075L34.4308 6.1112L36.0542 10.0832ZM42.2497 14.0995C42.0107 14.0995 41.8162 13.9083 41.8162 13.6732V4.11646C41.8162 3.88146 42.0107 3.69026 42.2497 3.69026H44.1612C44.4003 3.69026 44.5947 3.88146 44.5947 4.11646V13.6732C44.5947 13.9083 44.4003 14.0995 44.1612 14.0995H42.2497ZM54.7046 13.9452C54.7873 14.0432 54.909 14.0995 55.0386 14.0995H56.7151C56.9541 14.0995 57.1486 13.9083 57.1486 13.6732V4.11646C57.1486 3.88146 56.9541 3.69026 56.7151 3.69026H54.866C54.6269 3.69026 54.4324 3.88146 54.4324 4.11646V9.65827L49.5336 3.84459C49.451 3.74654 49.3293 3.69026 49.1998 3.69026H47.5232C47.2841 3.69026 47.0896 3.88146 47.0896 4.11646V13.6732C47.0896 13.9083 47.2841 14.0995 47.5232 14.0995H49.3723C49.6114 14.0995 49.8059 13.9083 49.8059 13.6732V8.1315L54.7046 13.9452Z" fill="#425A8B"/>
</svg>
