<svg width="44" height="44" viewBox="0 0 44 44" fill="none" xmlns="http://www.w3.org/2000/svg">
<path fill-rule="evenodd" clip-rule="evenodd" d="M21.9419 40.4573H22.0582C25.7543 40.4573 29.2297 39.0178 31.8441 36.4039C34.4579 33.7895 35.8975 30.3141 35.8975 26.618V17.382C35.8975 13.6859 34.4579 10.2105 31.844 7.59604C29.2297 4.9822 25.7543 3.54272 22.0582 3.54272H21.9419C18.2457 3.54272 14.7704 4.9822 12.1559 7.59609C9.54202 10.2105 8.10254 13.6859 8.10254 17.382V26.618C8.10254 30.3142 9.54206 33.7895 12.156 36.404C14.7704 39.0178 18.2457 40.4573 21.9419 40.4573ZM12.8892 8.32945C15.3077 5.91144 18.5227 4.57979 21.9419 4.57979V4.57974H22.0582C25.4774 4.57974 28.6923 5.9114 31.1107 8.3293C33.5287 10.7479 34.8604 13.9628 34.8604 17.382V26.618C34.8604 30.0373 33.5287 33.2522 31.1108 35.6707C28.6923 38.0887 25.4773 39.4203 22.0582 39.4203H21.9419C18.5227 39.4203 15.3077 38.0887 12.8893 35.6708C10.4713 33.2522 9.1396 30.0373 9.1396 26.618V17.3821C9.1396 13.9629 10.4713 10.7479 12.8892 8.32945ZM21.9425 38.3825H22.0585C23.778 38.3825 25.4356 38.0198 26.9849 37.3044C27.2449 37.1844 27.3584 36.8763 27.2383 36.6163C27.1183 36.3563 26.8102 36.2431 26.5502 36.3629C25.138 37.0149 23.6268 37.3455 22.0584 37.3455H21.9424C17.9982 37.3455 14.3805 35.1886 12.5011 31.7166C12.241 31.236 12.0163 30.7319 11.8333 30.2181C11.7372 29.9483 11.4404 29.8075 11.1708 29.9036C10.9011 29.9998 10.7603 30.2963 10.8564 30.5661C11.0572 31.1299 11.3037 31.683 11.5891 32.2102C13.65 36.0174 17.6171 38.3825 21.9425 38.3825ZM10.6961 27.1365C10.4098 27.1365 10.1776 26.9044 10.1776 26.618V17.382C10.1776 14.2394 11.4014 11.2849 13.6236 9.0627C15.8458 6.84054 18.8003 5.6167 21.9429 5.6167H22.0589C24.5609 5.6167 26.95 6.39176 28.9679 7.85804C29.1996 8.02636 29.2509 8.35068 29.0826 8.58233C28.9142 8.81398 28.5899 8.86528 28.3584 8.69701C26.5188 7.36027 24.3405 6.65376 22.0589 6.65376H21.9429C16.0273 6.65376 11.2146 11.4664 11.2146 17.382V26.618C11.2146 26.9044 10.9825 27.1365 10.6961 27.1365ZM30.5214 34.0428C30.617 34.1193 30.7313 34.1564 30.8449 34.1564C30.997 34.1564 31.1477 34.0898 31.2502 33.9618C32.0667 32.9412 32.7026 31.8022 33.1405 30.5766C33.5936 29.3084 33.8233 27.9765 33.8233 26.6178V17.3818C33.8233 14.7026 32.8986 12.081 31.2196 9.99969C31.0397 9.77681 30.7133 9.74191 30.4904 9.92169C30.2675 10.1015 30.2326 10.4279 30.4124 10.6508C31.9432 12.5483 32.7862 14.9387 32.7862 17.3818V26.6178C32.7862 29.08 31.975 31.3955 30.4403 33.314C30.2615 33.5376 30.2977 33.8639 30.5214 34.0428ZM12.7799 18.8661C12.4936 18.8661 12.2614 18.634 12.2614 18.3476V17.0502C12.2614 14.5615 13.2589 12.2128 15.0703 10.437C15.2748 10.2365 15.6031 10.2397 15.8036 10.4442C16.004 10.6487 16.0008 10.977 15.7963 11.1775C14.1855 12.7567 13.2984 14.8424 13.2984 17.0502V18.3476C13.2984 18.6339 13.0663 18.8661 12.7799 18.8661ZM13.6579 31.8063C13.7562 31.9638 13.9253 32.0503 14.0982 32.0503C14.192 32.0503 14.2869 32.0248 14.3724 31.9715C14.6153 31.8199 14.6893 31.5 14.5376 31.257C13.7269 29.9587 13.2984 28.4691 13.2984 26.9492V24.9205C13.2984 24.6341 13.0663 24.4019 12.7799 24.4019C12.4935 24.4019 12.2614 24.6341 12.2614 24.9205V26.9492C12.2614 28.6635 12.7443 30.3431 13.6579 31.8063ZM21.9993 36.3697C20.2926 36.3697 18.6121 35.9344 17.1395 35.1109C16.8896 34.9712 16.8003 34.6553 16.94 34.4053C17.0798 34.1553 17.3957 34.066 17.6457 34.2058C18.9639 34.943 20.4694 35.3327 21.9993 35.3327C26.7973 35.3327 30.7008 31.5718 30.7008 26.9491V25.7659C30.7008 25.4796 30.9329 25.2474 31.2193 25.2474C31.5057 25.2474 31.7378 25.4795 31.7378 25.7659V26.9491C31.7378 32.1437 27.3692 36.3697 21.9993 36.3697ZM30.7846 23.3426C30.7846 23.629 31.0167 23.8611 31.3031 23.8611C31.5895 23.8611 31.8216 23.629 31.8216 23.3426V21.4565C31.8216 21.1701 31.5895 20.938 31.3031 20.938C31.0167 20.938 30.7846 21.1702 30.7846 21.4565V23.3426ZM31.2199 19.8188C30.9336 19.8188 30.7014 19.5867 30.7014 19.3003V17.0502C30.7014 12.4275 26.798 8.6667 21.9999 8.6667C20.7821 8.6667 19.6035 8.90544 18.4969 9.37632C18.1428 9.527 17.7955 9.70251 17.4648 9.89796C17.2182 10.0436 16.9003 9.96187 16.7546 9.71536C16.6089 9.46884 16.6907 9.15085 16.9372 9.00516C17.3069 8.78669 17.6951 8.59052 18.0909 8.4221C19.3266 7.89628 20.6418 7.62968 21.9999 7.62968C27.3697 7.62968 31.7384 11.8557 31.7384 17.0503V19.3003C31.7385 19.5866 31.5063 19.8188 31.2199 19.8188ZM28.616 17.6327C28.616 17.9191 28.8482 18.1512 29.1345 18.1512C29.4209 18.1512 29.653 17.9191 29.653 17.6327V17.0499C29.653 13.7452 27.3569 10.8122 24.0692 9.91742C23.7928 9.84225 23.5079 10.0052 23.4327 10.2816C23.3575 10.5579 23.5205 10.8429 23.7969 10.918C26.6343 11.6903 28.616 14.2118 28.616 17.0499V17.6327ZM15.0487 16.0136C15.0087 16.0136 14.968 16.009 14.9273 15.9992C14.6488 15.9324 14.4772 15.6525 14.5441 15.374C14.8309 14.1785 15.4304 13.0586 16.2779 12.1353C17.1173 11.2208 18.1843 10.5154 19.3637 10.0954C19.6333 9.99923 19.9301 10.1401 20.0261 10.4099C20.1222 10.6797 19.9814 10.9762 19.7116 11.0723C17.6102 11.8206 16.0554 13.5192 15.5525 15.6159C15.4955 15.8537 15.283 16.0136 15.0487 16.0136ZM17.1555 32.6811C18.5184 33.7617 20.2385 34.3568 21.9991 34.3568C23.3366 34.3568 24.6541 34.0164 25.809 33.3723C26.9308 32.7467 27.8785 31.8494 28.5496 30.7774C28.7016 30.5347 28.628 30.2148 28.3853 30.0628C28.1426 29.9108 27.8226 29.9844 27.6706 30.2272C26.4764 32.1347 24.3032 33.3197 21.9991 33.3197C18.8872 33.3197 16.1639 31.1927 15.5236 28.2621C15.4625 27.9823 15.1859 27.8051 14.9064 27.8662C14.6266 27.9273 14.4494 28.2037 14.5105 28.4834C14.8684 30.1217 15.8077 31.6125 17.1555 32.6811ZM16.9502 17.5688C16.6639 17.5688 16.4317 17.3367 16.4317 17.0503C16.4317 15.3619 16.9982 13.8745 17.986 12.9696C18.9619 12.0756 20.4563 11.5419 21.9833 11.5419C23.4601 11.5419 24.9955 12.1019 25.9904 13.0034C26.2027 13.1957 26.2188 13.5237 26.0265 13.7358C25.8341 13.9481 25.5063 13.9642 25.2941 13.7719C24.4943 13.0472 23.1948 12.5789 21.9833 12.5789C20.7278 12.5789 19.4646 13.0216 18.6865 13.7343C17.9126 14.4433 17.4688 15.6519 17.4688 17.0502C17.4688 17.3366 17.2366 17.5688 16.9502 17.5688ZM17.4545 30.2403C17.5563 30.3764 17.7121 30.4482 17.87 30.4482C17.978 30.4482 18.087 30.4145 18.1802 30.3448C18.4095 30.1733 18.4563 29.8483 18.2847 29.619C17.728 28.8751 17.4337 27.9971 17.4337 27.08C17.4337 26.7936 17.2016 26.5615 16.9152 26.5615C16.6288 26.5615 16.3967 26.7936 16.3967 27.08C16.3967 28.2229 16.7625 29.3157 17.4545 30.2403ZM21.999 32.344C21.5599 32.344 21.1223 32.294 20.6984 32.1954C20.4194 32.1306 20.2459 31.8519 20.3108 31.5729C20.3756 31.294 20.6543 31.1203 20.9332 31.1854C21.2803 31.266 21.6388 31.307 21.9989 31.307C23.594 31.307 24.9364 30.7864 25.6818 29.8788C26.2135 29.2316 26.5308 28.1364 26.5308 26.9492C26.5308 26.6628 26.7629 26.4307 27.0493 26.4307C27.3357 26.4307 27.5679 26.6628 27.5679 26.9492C27.5679 28.3901 27.1726 29.6978 26.4833 30.537C25.5262 31.7023 23.9337 32.344 21.999 32.344ZM25.4736 18.5265H28.0992C29.1349 18.5265 29.9745 19.366 29.9745 20.4018V23.5982C29.9745 24.634 29.1349 25.4735 28.0992 25.4735H25.4736V28.0992C25.4736 29.1349 24.634 29.9745 23.5982 29.9745H20.4018C19.3661 29.9745 18.5265 29.1349 18.5265 28.0992V25.4735H15.9008C14.8651 25.4735 14.0255 24.634 14.0255 23.5982V20.4018C14.0255 19.366 14.8651 18.5265 15.9008 18.5265H18.5265V15.9008C18.5265 14.8651 19.3661 14.0255 20.4018 14.0255H23.5982C24.634 14.0255 25.4736 14.8651 25.4736 15.9008V18.5265Z" fill="#425A8B"/>
</svg>
