<svg xmlns="http://www.w3.org/2000/svg" width="250" height="250" style="width:100%;height:100%;transform:translate3d(0,0,0);content-visibility:visible" viewBox="0 0 500 500"><defs><clipPath id="b"><path d="M0 0h500v500H0z"/></clipPath><path id="a" fill="red" d="m187.142 171.323 103.702 103.903c11.449 11.47 30.04 11.471 41.49.002l103.688-103.87" style="display:block"/><mask id="c" mask-type="alpha"><use xmlns:ns1="http://www.w3.org/1999/xlink" ns1:href="#a"/></mask></defs><g clip-path="url(#b)"><path fill="#EBE6EF" d="M159.17-102.4v204.82c0 1.66-1.34 3-3 3h-312.34c-1.66 0-3-1.34-3-3v-204.84c0-.83.34-1.58.88-2.12.54-.55 1.29-.88 2.12-.88h17.13l295.21.02c.83 0 1.58.33 2.12.88.54.54.88 1.29.88 2.12z" style="display:block" transform="translate(311.996 254.502) scale(.7913)"/><path fill="#EBE6EF" fill-opacity=".5" d="M55.597-3.45C40.613-14.526 18.264-22.834.012-22.751c-20.25.092-39.258 8.155-56.274 19.41-38.129 25.221-104.8 88.466-104.8 88.466l.187 13.625s72.485-66.073 112.625-94c13.659-9.503 30.107-16.574 47.062-16.619C12.94-11.907 33.64-6.597 46.835 3.506c38.547 29.516 112.998 97.273 112.998 97.273v-15.32S90.753 22.536 55.597-3.45z" style="mix-blend-mode:multiply;display:block" transform="matrix(.7913 0 0 .78673 313.186 257.27)"/><g fill="#4BB3FD" style="display:block"><path d="m187.142 171.323 103.702 103.903c11.449 11.47 30.04 11.471 41.49.002l103.688-103.87"/><path fill-opacity=".5" d="m-42.379-18.836 35.315 35.383c3.899 3.906 10.23 3.907 14.129 0l35.31-35.371" style="mix-blend-mode:multiply" transform="translate(311.588 226.635) scale(2.9365)"/></g><g mask="url(#c)" style="display:block"><path fill="#4BB3FD" d="M202.418 171.323 306.12 275.226c11.448 11.47 30.04 11.471 41.49.002l103.688-103.87"/></g><path fill="none" stroke="#121331" stroke-linecap="round" stroke-linejoin="round" stroke-width="1.9" d="M-29.188-21.5h-21.85m21.85 11.284h-21.85M-29.147.932h-21.85m21.85 11.284h-21.85m21.795 11.149h-21.85" style="display:block" transform="matrix(3.7 0 0 3.7 250 250)"/><g class="com" style="display:none"><path/><path/><path/><path/><path/><path/><path/><path/><path/><path/><path/><path/></g></g></svg>