<?xml version="1.0" encoding="UTF-8" standalone="no"?>
<!DOCTYPE svg PUBLIC "-//W3C//DTD SVG 1.1//EN" "http://www.w3.org/Graphics/SVG/1.1/DTD/svg11.dtd">
<svg width="100%" height="100%" viewBox="0 0 111 37" version="1.1" xmlns="http://www.w3.org/2000/svg" xmlns:xlink="http://www.w3.org/1999/xlink" xml:space="preserve" xmlns:serif="http://www.serif.com/" style="fill-rule:evenodd;clip-rule:evenodd;stroke-linejoin:round;stroke-miterlimit:2;">
    <g transform="matrix(1,0,0,1,-0.15654,1.01104)">
        <text x="2.701px" y="30.123px" style="font-family:'Arial-BoldMT', 'Arial', sans-serif;font-weight:700;font-size:34.864px;fill:rgb(66,90,139);">Hainu</text>
    </g>
    <g transform="matrix(1.3533,0,0,1.3533,6.39279,-20.3659)">
        <path d="M33.78,23.56C35.459,23.56 36.82,22.199 36.82,20.52C36.82,18.841 35.459,17.48 33.78,17.48C32.101,17.48 30.74,18.841 30.74,20.52C30.74,22.199 32.101,23.56 33.78,23.56Z" style="fill:rgb(54,190,249);fill-rule:nonzero;"/>
    </g>
    <path d="M105.168,13.888L103.816,13.888L103.804,13.058L104.961,13.058C105.153,13.058 105.332,13.031 105.495,12.977C105.658,12.918 105.79,12.834 105.891,12.725C105.992,12.616 106.042,12.482 106.042,12.323C106.042,12.113 106.006,11.95 105.935,11.832C105.868,11.715 105.753,11.629 105.589,11.575C105.426,11.52 105.206,11.493 104.929,11.493L104.099,11.493L104.099,16.013L103.175,16.013L103.175,10.669L104.929,10.669C105.344,10.669 105.705,10.732 106.011,10.858C106.317,10.979 106.551,11.162 106.715,11.405C106.882,11.648 106.966,11.95 106.966,12.31C106.966,12.536 106.912,12.738 106.803,12.914C106.698,13.09 106.545,13.241 106.344,13.366C106.143,13.492 105.893,13.595 105.596,13.674C105.583,13.674 105.568,13.689 105.552,13.718C105.539,13.744 105.526,13.756 105.514,13.756C105.443,13.798 105.396,13.83 105.376,13.851C105.359,13.867 105.34,13.878 105.319,13.882C105.302,13.886 105.252,13.888 105.168,13.888ZM105.105,13.888L105.237,13.216C105.891,13.216 106.337,13.362 106.576,13.656C106.819,13.949 106.941,14.318 106.941,14.762L106.941,15.114C106.941,15.269 106.949,15.418 106.966,15.561C106.983,15.699 107.01,15.816 107.048,15.913L107.048,16.013L106.099,16.013C106.057,15.904 106.032,15.749 106.023,15.548C106.019,15.347 106.017,15.2 106.017,15.108L106.017,14.768C106.017,14.471 105.948,14.251 105.809,14.108C105.671,13.961 105.436,13.888 105.105,13.888ZM101.301,13.417C101.301,13.97 101.398,14.486 101.591,14.963C101.783,15.441 102.05,15.86 102.389,16.221C102.729,16.577 103.123,16.856 103.571,17.057C104.02,17.254 104.502,17.352 105.017,17.352C105.529,17.352 106.006,17.254 106.451,17.057C106.899,16.856 107.293,16.577 107.633,16.221C107.972,15.86 108.238,15.441 108.431,14.963C108.624,14.486 108.72,13.97 108.72,13.417C108.72,12.859 108.624,12.344 108.431,11.87C108.238,11.392 107.972,10.975 107.633,10.619C107.293,10.263 106.899,9.986 106.451,9.789C106.006,9.592 105.529,9.493 105.017,9.493C104.502,9.493 104.02,9.592 103.571,9.789C103.123,9.986 102.729,10.263 102.389,10.619C102.05,10.975 101.783,11.392 101.591,11.87C101.398,12.344 101.301,12.859 101.301,13.417ZM100.553,13.417C100.553,12.75 100.669,12.132 100.899,11.562C101.13,10.992 101.45,10.495 101.861,10.072C102.272,9.644 102.745,9.313 103.282,9.078C103.823,8.84 104.401,8.72 105.017,8.72C105.633,8.72 106.21,8.84 106.746,9.078C107.287,9.313 107.76,9.644 108.167,10.072C108.578,10.495 108.898,10.992 109.129,11.562C109.36,12.132 109.475,12.75 109.475,13.417C109.475,14.083 109.36,14.701 109.129,15.271C108.898,15.841 108.578,16.34 108.167,16.768C107.76,17.195 107.287,17.529 106.746,17.767C106.21,18.006 105.633,18.126 105.017,18.126C104.401,18.126 103.823,18.006 103.282,17.767C102.745,17.529 102.272,17.195 101.861,16.768C101.45,16.34 101.13,15.841 100.899,15.271C100.669,14.701 100.553,14.083 100.553,13.417Z" style="fill:rgb(76,98,144);fill-rule:nonzero;"/>
</svg>
