<?xml version="1.0" encoding="UTF-8" standalone="no"?>
<!DOCTYPE svg PUBLIC "-//W3C//DTD SVG 1.1//EN" "http://www.w3.org/Graphics/SVG/1.1/DTD/svg11.dtd">
<svg width="100%" height="100%" viewBox="0 0 131 26" version="1.1" xmlns="http://www.w3.org/2000/svg" xmlns:xlink="http://www.w3.org/1999/xlink" xml:space="preserve" style="fill-rule:evenodd;clip-rule:evenodd;stroke-linejoin:round;stroke-miterlimit:2;">
    <g transform="matrix(1,0,0,1,-68.5226,-2.2985)">
        <path d="M86.506,22.225C87.434,22.225 87.981,21.658 87.981,20.692L87.981,16.102L94.328,16.102L94.328,20.692C94.328,21.658 94.875,22.225 95.803,22.225C96.731,22.225 97.278,21.658 97.278,20.692L97.278,9.295C97.278,8.319 96.731,7.752 95.803,7.752C94.875,7.752 94.328,8.319 94.328,9.295L94.328,13.67L87.981,13.67L87.981,9.295C87.981,8.319 87.434,7.752 86.506,7.752C85.578,7.752 85.031,8.319 85.031,9.295L85.031,20.692C85.031,21.658 85.578,22.225 86.506,22.225Z" style="fill:rgb(0,148,255);fill-rule:nonzero;"/>
        <path d="M100.559,22.225C101.34,22.225 101.779,21.834 102.053,20.897L102.795,18.699L107.883,18.699L108.625,20.926C108.889,21.844 109.328,22.225 110.158,22.225C111.018,22.225 111.633,21.649 111.633,20.838C111.633,20.545 111.584,20.281 111.447,19.901L107.58,9.412C107.16,8.26 106.477,7.752 105.324,7.752C104.211,7.752 103.518,8.28 103.108,9.422L99.26,19.901C99.133,20.262 99.065,20.594 99.065,20.838C99.065,21.688 99.641,22.225 100.559,22.225ZM103.44,16.414L105.266,10.643L105.334,10.643L107.199,16.414L103.44,16.414Z" style="fill:rgb(0,148,255);fill-rule:nonzero;"/>
        <path d="M114.494,22.176C115.031,22.176 115.373,21.824 115.373,21.268L115.373,8.719C115.373,8.162 115.031,7.811 114.494,7.811C113.957,7.811 113.615,8.162 113.615,8.719L113.615,21.268C113.615,21.824 113.957,22.176 114.494,22.176Z" style="fill:rgb(63,66,84);fill-rule:nonzero;"/>
        <path d="M118.977,22.176C119.514,22.176 119.846,21.824 119.846,21.268L119.846,11.014L119.934,11.014L127.346,21.6C127.658,22.049 127.883,22.176 128.361,22.176C128.986,22.176 129.358,21.815 129.358,21.219L129.358,8.719C129.358,8.162 129.026,7.811 128.488,7.811C127.951,7.811 127.619,8.162 127.619,8.719L127.619,19.012L127.531,19.012L120.129,8.397C119.817,7.948 119.582,7.811 119.113,7.811C118.508,7.811 118.108,8.221 118.108,8.836L118.108,21.268C118.108,21.824 118.44,22.176 118.977,22.176Z" style="fill:rgb(63,66,84);fill-rule:nonzero;"/>
        <path d="M137.688,22.274C141.184,22.274 143.283,20.106 143.283,17.098L143.283,8.719C143.283,8.162 142.942,7.811 142.404,7.811C141.867,7.811 141.526,8.162 141.526,8.719L141.526,16.981C141.526,19.11 140.129,20.653 137.688,20.653C135.246,20.653 133.85,19.11 133.85,16.981L133.85,8.719C133.85,8.162 133.508,7.811 132.971,7.811C132.434,7.811 132.092,8.162 132.092,8.719L132.092,17.098C132.092,20.106 134.192,22.274 137.688,22.274Z" style="fill:rgb(63,66,84);fill-rule:nonzero;"/>
    </g>
</svg>
